<svg xmlns="http://www.w3.org/2000/svg" width="458.723" height="528.981" viewBox="0 0 458.723 528.981">
  <g id="Group_85" data-name="Group 85" transform="translate(-1026.639 -4397.019)">
    <path id="Subtraction_18" data-name="Subtraction 18" d="M-3811.305,524.667h-379.561a199.686,199.686,0,0,1-7.083-35.705,199.415,199.415,0,0,1-.171-40.093,196.932,196.932,0,0,1,7.586-38.157,197.94,197.94,0,0,1,14.635-35.346,199.352,199.352,0,0,1,20.976-31.66,199.355,199.355,0,0,1,26.608-27.1,197.953,197.953,0,0,1,31.531-21.664,196.95,196.95,0,0,1,35.747-15.354,199.4,199.4,0,0,1,39.253-8.169,201.057,201.057,0,0,1,20.931-1.1,197.456,197.456,0,0,1,131.811,50.5,199.165,199.165,0,0,1,24.271,25.99,197.747,197.747,0,0,1,19.368,30.178,197.013,197.013,0,0,1,13.749,33.786,199.614,199.614,0,0,1,7.414,36.814,199.44,199.44,0,0,1,.229,39.474,196.994,196.994,0,0,1-7.295,37.612Zm-398.8-200.76a50.687,50.687,0,0,1-33.837-12.962,50.649,50.649,0,0,1-11.2-14.418,50.581,50.581,0,0,1-5.433-18.122,50.489,50.489,0,0,1,1.9-20.086,50.653,50.653,0,0,1,9.142-17.2A50.64,50.64,0,0,1-4234.6,228.6a50.494,50.494,0,0,1,19.252-6.039,51.625,51.625,0,0,1,5.375-.283,50.683,50.683,0,0,1,33.835,12.963,50.621,50.621,0,0,1,11.2,14.418,50.579,50.579,0,0,1,5.432,18.123,50.5,50.5,0,0,1-1.9,20.087,50.641,50.641,0,0,1-9.141,17.2,50.636,50.636,0,0,1-14.924,12.518,50.489,50.489,0,0,1-19.252,6.038A51.479,51.479,0,0,1-4210.1,323.906Zm207.924-81.952a122.309,122.309,0,0,1-81.656-31.283,123.37,123.37,0,0,1-15.036-16.1,122.511,122.511,0,0,1-12-18.7,122.071,122.071,0,0,1-13.11-43.737,123.517,123.517,0,0,1-.105-24.838,121.988,121.988,0,0,1,4.7-23.639,122.618,122.618,0,0,1,9.066-21.9,123.543,123.543,0,0,1,12.994-19.614,123.524,123.524,0,0,1,16.483-16.789,122.632,122.632,0,0,1,19.534-13.421,122.009,122.009,0,0,1,22.145-9.512,123.525,123.525,0,0,1,24.317-5.061,124.538,124.538,0,0,1,12.967-.682,122.323,122.323,0,0,1,81.657,31.284,123.4,123.4,0,0,1,15.036,16.1,122.516,122.516,0,0,1,12,18.695,122.067,122.067,0,0,1,13.11,43.736,123.538,123.538,0,0,1,.106,24.838,122.007,122.007,0,0,1-4.7,23.639,122.647,122.647,0,0,1-9.067,21.9,123.488,123.488,0,0,1-12.994,19.614,123.5,123.5,0,0,1-16.483,16.788,122.652,122.652,0,0,1-19.533,13.421,122.017,122.017,0,0,1-22.145,9.512,123.529,123.529,0,0,1-24.317,5.061A124.337,124.337,0,0,1-4002.177,241.954Z" transform="translate(5288 4400.833)" fill="#aaa" stroke="#707070" stroke-width="1" opacity="0.65"/>
    <text id="Bye" transform="translate(1042 4690)" fill="#dadada" font-size="47" font-family="SegoeUI-Light, Segoe UI" font-weight="300" letter-spacing="0.007em"><tspan x="0" y="0">Bye</tspan></text>
  </g>
</svg>
